<svg width="512" height="512" viewBox="0 0 512 512" xmlns="http://www.w3.org/2000/svg">
  <!-- Dark capsule background matching the notch theme -->
  <rect x="0" y="0" width="512" height="512" rx="112" fill="#0a0a0a"/>

  <!-- Subtle inner glow / gradient -->
  <rect x="0" y="0" width="512" height="512" rx="112" fill="url(#bgGrad)"/>

  <defs>
    <radialGradient id="bgGrad" cx="50%" cy="40%" r="60%">
      <stop offset="0%" stop-color="#2a2a2a"/>
      <stop offset="100%" stop-color="#0a0a0a"/>
    </radialGradient>
  </defs>

  <!-- Logo mark in white for contrast on dark bg -->
  <g fill="#ffffff">
    <path d="
      M124 106
      C124 101.6 127.6 98 132 98
      H354
      C362.5 98 366.8 108.3 360.8 114.3
      C304.5 170.7 263.7 229.2 237.8 289.6
      C213.2 347 201.8 402.1 199.8 438
      C199.5 443.6 194.9 448 189.3 448
      H143.2
      C137.1 448 132.4 442.7 133.1 436.7
      C139.2 383.9 154.7 332.9 179.5 283.7
      C203.1 237 235.4 191.9 276.5 148.5
      H148.8
      C144.1 148.5 140.1 151.8 139.2 156.4
      L135.9 174.1
      C135.1 178.8 131 182.2 126.2 182.2
      H106.8
      C100.6 182.2 95.9 176.6 97.1 170.5
      L124 106Z
    "/>
    <path d="
      M151 238
      C151 229.2 158.2 222 167 222
      H277
      C285.8 222 293 229.2 293 238
      C293 246.8 285.8 254 277 254
      H167
      C158.2 254 151 246.8 151 238Z
    "/>
  </g>
</svg>
